<mxfile host="app.diagrams.net" modified="2021-09-13T18:12:44.668Z" agent="5.0 (Windows NT 10.0; Win64; x64) AppleWebKit/537.36 (KHTML, like Gecko) Chrome/93.0.4577.63 Safari/537.36" etag="pbPPi5zRO_-qyBT4a-sh" version="15.1.2" type="github">
  <diagram id="W-w4iV6Ni8bMDTbpBdYY" name="Page-1">
    <mxGraphModel dx="862" dy="1619" grid="1" gridSize="10" guides="1" tooltips="1" connect="1" arrows="1" fold="1" page="1" pageScale="1" pageWidth="827" pageHeight="1169" math="0" shadow="0">
      <root>
        <mxCell id="0" />
        <mxCell id="1" parent="0" />
        <mxCell id="GS_q3yZBwv345zg20Qat-5" value="" style="edgeStyle=orthogonalEdgeStyle;rounded=0;orthogonalLoop=1;jettySize=auto;html=1;" parent="1" source="GS_q3yZBwv345zg20Qat-1" target="GS_q3yZBwv345zg20Qat-4" edge="1">
          <mxGeometry relative="1" as="geometry" />
        </mxCell>
        <mxCell id="GS_q3yZBwv345zg20Qat-1" value="&lt;b&gt;&lt;font style=&quot;font-size: 17px&quot;&gt;INICIO&lt;/font&gt;&lt;/b&gt;" style="ellipse;whiteSpace=wrap;html=1;strokeWidth=2;" parent="1" vertex="1">
          <mxGeometry x="142.5" y="-230" width="165" height="80" as="geometry" />
        </mxCell>
        <mxCell id="GS_q3yZBwv345zg20Qat-7" value="" style="edgeStyle=orthogonalEdgeStyle;rounded=0;orthogonalLoop=1;jettySize=auto;html=1;entryX=0.53;entryY=0.167;entryDx=0;entryDy=0;entryPerimeter=0;" parent="1" source="GS_q3yZBwv345zg20Qat-4" target="GS_q3yZBwv345zg20Qat-6" edge="1">
          <mxGeometry relative="1" as="geometry">
            <mxPoint x="230" y="240" as="targetPoint" />
            <Array as="points">
              <mxPoint x="229" y="70" />
              <mxPoint x="229" y="70" />
            </Array>
          </mxGeometry>
        </mxCell>
        <mxCell id="GS_q3yZBwv345zg20Qat-4" value="&lt;font style=&quot;font-size: 17px&quot;&gt;Informar data do evento&lt;/font&gt;" style="shape=display;whiteSpace=wrap;html=1;fontStyle=1;strokeWidth=2;" parent="1" vertex="1">
          <mxGeometry x="140" y="-20" width="170" height="80" as="geometry" />
        </mxCell>
        <mxCell id="GS_q3yZBwv345zg20Qat-13" value="" style="edgeStyle=orthogonalEdgeStyle;rounded=0;orthogonalLoop=1;jettySize=auto;html=1;fontSize=14;" parent="1" source="GS_q3yZBwv345zg20Qat-6" target="GS_q3yZBwv345zg20Qat-8" edge="1">
          <mxGeometry relative="1" as="geometry" />
        </mxCell>
        <mxCell id="GS_q3yZBwv345zg20Qat-6" value="&lt;b&gt;&lt;font style=&quot;font-size: 17px&quot;&gt;Data&lt;/font&gt;&lt;/b&gt;" style="html=1;strokeWidth=2;shape=manualInput;whiteSpace=wrap;rounded=1;size=26;arcSize=11;" parent="1" vertex="1">
          <mxGeometry x="162.5" y="100" width="125" height="82.5" as="geometry" />
        </mxCell>
        <mxCell id="GS_q3yZBwv345zg20Qat-15" value="" style="edgeStyle=orthogonalEdgeStyle;rounded=0;orthogonalLoop=1;jettySize=auto;html=1;fontSize=14;" parent="1" source="GS_q3yZBwv345zg20Qat-8" target="GS_q3yZBwv345zg20Qat-14" edge="1">
          <mxGeometry relative="1" as="geometry">
            <Array as="points">
              <mxPoint x="225" y="400" />
              <mxPoint x="225" y="400" />
            </Array>
          </mxGeometry>
        </mxCell>
        <mxCell id="GS_q3yZBwv345zg20Qat-19" value="" style="edgeStyle=orthogonalEdgeStyle;rounded=0;orthogonalLoop=1;jettySize=auto;html=1;fontSize=21;" parent="1" source="GS_q3yZBwv345zg20Qat-8" target="GS_q3yZBwv345zg20Qat-17" edge="1">
          <mxGeometry relative="1" as="geometry">
            <Array as="points">
              <mxPoint x="390" y="290" />
              <mxPoint x="390" y="290" />
            </Array>
          </mxGeometry>
        </mxCell>
        <mxCell id="GS_q3yZBwv345zg20Qat-8" value="&lt;b&gt;&lt;font style=&quot;font-size: 17px&quot;&gt;Data posterior&lt;br&gt;&amp;nbsp;ao &lt;br&gt;evento atual?&lt;/font&gt;&lt;/b&gt;" style="strokeWidth=2;html=1;shape=mxgraph.flowchart.decision;whiteSpace=wrap;" parent="1" vertex="1">
          <mxGeometry x="140" y="220" width="170" height="140" as="geometry" />
        </mxCell>
        <mxCell id="GS_q3yZBwv345zg20Qat-9" value="&lt;font style=&quot;font-size: 20px&quot;&gt;Sim&lt;/font&gt;" style="text;html=1;strokeColor=none;fillColor=none;align=center;verticalAlign=middle;whiteSpace=wrap;rounded=0;strokeWidth=3;perimeterSpacing=2;shadow=0;fontStyle=3;fontSize=14;" parent="1" vertex="1">
          <mxGeometry x="340" y="270" width="40" height="20" as="geometry" />
        </mxCell>
        <mxCell id="GS_q3yZBwv345zg20Qat-10" value="Não" style="text;html=1;strokeColor=none;fillColor=none;align=center;verticalAlign=middle;whiteSpace=wrap;rounded=0;fontStyle=3;fontSize=21;" parent="1" vertex="1">
          <mxGeometry x="180" y="380" width="40" height="20" as="geometry" />
        </mxCell>
        <mxCell id="GS_q3yZBwv345zg20Qat-23" value="" style="edgeStyle=orthogonalEdgeStyle;rounded=0;orthogonalLoop=1;jettySize=auto;html=1;fontSize=21;" parent="1" source="GS_q3yZBwv345zg20Qat-14" edge="1">
          <mxGeometry relative="1" as="geometry">
            <mxPoint x="180" y="140" as="targetPoint" />
            <Array as="points">
              <mxPoint x="100" y="445" />
              <mxPoint x="100" y="140" />
            </Array>
          </mxGeometry>
        </mxCell>
        <mxCell id="GS_q3yZBwv345zg20Qat-14" value="&lt;div&gt;&lt;span&gt;&lt;b&gt;Cadastro Não permitido por data inválida&lt;/b&gt;&lt;/span&gt;&lt;/div&gt;" style="shape=display;whiteSpace=wrap;html=1;rounded=0;shadow=0;fontSize=14;strokeWidth=2;align=center;" parent="1" vertex="1">
          <mxGeometry x="155" y="420" width="160" height="70" as="geometry" />
        </mxCell>
        <mxCell id="Ma5ZTWYUSctiUfGv6G-O-6" value="" style="edgeStyle=orthogonalEdgeStyle;rounded=0;orthogonalLoop=1;jettySize=auto;html=1;" edge="1" parent="1" source="GS_q3yZBwv345zg20Qat-17" target="Ma5ZTWYUSctiUfGv6G-O-3">
          <mxGeometry relative="1" as="geometry" />
        </mxCell>
        <mxCell id="GS_q3yZBwv345zg20Qat-17" value="&lt;b&gt;&lt;font style=&quot;font-size: 17px&quot;&gt;Permitido&lt;/font&gt;&lt;/b&gt;" style="shape=display;whiteSpace=wrap;html=1;rounded=0;shadow=0;fontSize=21;strokeWidth=2;" parent="1" vertex="1">
          <mxGeometry x="414" y="242.5" width="166" height="75" as="geometry" />
        </mxCell>
        <mxCell id="GS_q3yZBwv345zg20Qat-28" value="" style="edgeStyle=orthogonalEdgeStyle;rounded=0;orthogonalLoop=1;jettySize=auto;html=1;fontSize=21;" parent="1" source="GS_q3yZBwv345zg20Qat-25" target="GS_q3yZBwv345zg20Qat-27" edge="1">
          <mxGeometry relative="1" as="geometry" />
        </mxCell>
        <mxCell id="GS_q3yZBwv345zg20Qat-25" value="&lt;font style=&quot;font-size: 14px&quot;&gt;Informar quantidade de participantes&lt;/font&gt;" style="shape=display;whiteSpace=wrap;html=1;rounded=0;shadow=0;fontSize=21;strokeWidth=2;fontStyle=1" parent="1" vertex="1">
          <mxGeometry x="402" y="-90" width="190" height="90" as="geometry" />
        </mxCell>
        <mxCell id="GS_q3yZBwv345zg20Qat-32" value="" style="edgeStyle=orthogonalEdgeStyle;rounded=0;orthogonalLoop=1;jettySize=auto;html=1;fontSize=21;" parent="1" source="GS_q3yZBwv345zg20Qat-27" target="GS_q3yZBwv345zg20Qat-31" edge="1">
          <mxGeometry relative="1" as="geometry" />
        </mxCell>
        <mxCell id="GS_q3yZBwv345zg20Qat-27" value="&lt;font size=&quot;1&quot;&gt;&lt;b style=&quot;font-size: 16px&quot;&gt;Quantidade&lt;/b&gt;&lt;/font&gt;" style="html=1;strokeWidth=2;shape=manualInput;whiteSpace=wrap;rounded=1;size=26;arcSize=11;shadow=0;fontSize=21;" parent="1" vertex="1">
          <mxGeometry x="440.5" y="-205" width="113" height="60" as="geometry" />
        </mxCell>
        <mxCell id="GS_q3yZBwv345zg20Qat-34" value="" style="edgeStyle=orthogonalEdgeStyle;rounded=0;orthogonalLoop=1;jettySize=auto;html=1;fontSize=17;" parent="1" source="GS_q3yZBwv345zg20Qat-31" target="GS_q3yZBwv345zg20Qat-33" edge="1">
          <mxGeometry relative="1" as="geometry" />
        </mxCell>
        <mxCell id="GS_q3yZBwv345zg20Qat-36" value="" style="edgeStyle=orthogonalEdgeStyle;rounded=0;orthogonalLoop=1;jettySize=auto;html=1;fontSize=17;" parent="1" source="GS_q3yZBwv345zg20Qat-31" target="GS_q3yZBwv345zg20Qat-35" edge="1">
          <mxGeometry relative="1" as="geometry" />
        </mxCell>
        <mxCell id="GS_q3yZBwv345zg20Qat-31" value="&lt;font size=&quot;1&quot;&gt;&lt;b style=&quot;font-size: 17px&quot;&gt;Menor que 100&lt;/b&gt;&lt;/font&gt;" style="rhombus;whiteSpace=wrap;html=1;rounded=0;shadow=0;fontSize=21;strokeWidth=2;" parent="1" vertex="1">
          <mxGeometry x="690" y="-230" width="120" height="110" as="geometry" />
        </mxCell>
        <mxCell id="GS_q3yZBwv345zg20Qat-42" value="" style="edgeStyle=orthogonalEdgeStyle;rounded=0;orthogonalLoop=1;jettySize=auto;html=1;fontSize=17;" parent="1" source="GS_q3yZBwv345zg20Qat-33" target="GS_q3yZBwv345zg20Qat-41" edge="1">
          <mxGeometry relative="1" as="geometry">
            <Array as="points">
              <mxPoint x="750" y="100" />
              <mxPoint x="750" y="100" />
            </Array>
          </mxGeometry>
        </mxCell>
        <mxCell id="GS_q3yZBwv345zg20Qat-33" value="&lt;font style=&quot;vertical-align: inherit&quot;&gt;&lt;font style=&quot;vertical-align: inherit&quot;&gt;Informe a Idade&amp;nbsp;&lt;/font&gt;&lt;/font&gt;" style="shape=display;whiteSpace=wrap;html=1;rounded=0;shadow=0;fontSize=17;strokeWidth=2;fontStyle=1" parent="1" vertex="1">
          <mxGeometry x="685" y="-50" width="130" height="70" as="geometry" />
        </mxCell>
        <mxCell id="GS_q3yZBwv345zg20Qat-40" value="" style="edgeStyle=orthogonalEdgeStyle;rounded=0;orthogonalLoop=1;jettySize=auto;html=1;fontSize=17;" parent="1" source="GS_q3yZBwv345zg20Qat-35" target="GS_q3yZBwv345zg20Qat-39" edge="1">
          <mxGeometry relative="1" as="geometry" />
        </mxCell>
        <mxCell id="GS_q3yZBwv345zg20Qat-35" value="&lt;b&gt;Limite Excedido&lt;/b&gt;" style="shape=display;whiteSpace=wrap;html=1;rounded=0;shadow=0;fontSize=17;strokeWidth=2;" parent="1" vertex="1">
          <mxGeometry x="920" y="-85" width="150" height="70" as="geometry" />
        </mxCell>
        <mxCell id="GS_q3yZBwv345zg20Qat-37" value="Sim&amp;nbsp;" style="text;html=1;strokeColor=none;fillColor=none;align=center;verticalAlign=middle;whiteSpace=wrap;rounded=0;shadow=0;fontSize=17;fontStyle=1" parent="1" vertex="1">
          <mxGeometry x="700" y="-115" width="60" height="30" as="geometry" />
        </mxCell>
        <mxCell id="GS_q3yZBwv345zg20Qat-38" value="&lt;b&gt;Não&lt;/b&gt;" style="text;html=1;strokeColor=none;fillColor=none;align=center;verticalAlign=middle;whiteSpace=wrap;rounded=0;shadow=0;fontSize=17;" parent="1" vertex="1">
          <mxGeometry x="830" y="-205" width="80" height="40" as="geometry" />
        </mxCell>
        <mxCell id="GS_q3yZBwv345zg20Qat-39" value="&lt;b&gt;&lt;font style=&quot;font-size: 20px&quot;&gt;FIM&lt;/font&gt;&lt;/b&gt;" style="ellipse;whiteSpace=wrap;html=1;rounded=0;shadow=0;fontSize=17;strokeWidth=2;" parent="1" vertex="1">
          <mxGeometry x="935" y="80" width="120" height="80" as="geometry" />
        </mxCell>
        <mxCell id="GS_q3yZBwv345zg20Qat-59" value="" style="edgeStyle=orthogonalEdgeStyle;rounded=0;orthogonalLoop=1;jettySize=auto;html=1;fontSize=17;" parent="1" source="GS_q3yZBwv345zg20Qat-41" target="GS_q3yZBwv345zg20Qat-50" edge="1">
          <mxGeometry relative="1" as="geometry">
            <Array as="points">
              <mxPoint x="680" y="390" />
              <mxPoint x="680" y="390" />
            </Array>
          </mxGeometry>
        </mxCell>
        <mxCell id="GS_q3yZBwv345zg20Qat-41" value="&lt;b&gt;Idade&lt;/b&gt;" style="html=1;strokeWidth=2;shape=manualInput;whiteSpace=wrap;rounded=1;size=26;arcSize=11;shadow=0;fontSize=17;" parent="1" vertex="1">
          <mxGeometry x="690" y="130" width="130" height="62.5" as="geometry" />
        </mxCell>
        <mxCell id="GS_q3yZBwv345zg20Qat-46" value="" style="edgeStyle=orthogonalEdgeStyle;rounded=0;orthogonalLoop=1;jettySize=auto;html=1;fontSize=17;entryX=0;entryY=0.75;entryDx=0;entryDy=0;exitX=0;exitY=0.5;exitDx=0;exitDy=0;exitPerimeter=0;" parent="1" source="GS_q3yZBwv345zg20Qat-55" target="GS_q3yZBwv345zg20Qat-41" edge="1">
          <mxGeometry relative="1" as="geometry">
            <mxPoint x="610" y="610" as="sourcePoint" />
            <mxPoint x="610" y="350" as="targetPoint" />
            <Array as="points">
              <mxPoint x="590" y="510" />
              <mxPoint x="590" y="177" />
            </Array>
          </mxGeometry>
        </mxCell>
        <mxCell id="Ma5ZTWYUSctiUfGv6G-O-11" value="" style="edgeStyle=orthogonalEdgeStyle;rounded=0;orthogonalLoop=1;jettySize=auto;html=1;" edge="1" parent="1" source="GS_q3yZBwv345zg20Qat-45" target="GS_q3yZBwv345zg20Qat-39">
          <mxGeometry relative="1" as="geometry" />
        </mxCell>
        <mxCell id="GS_q3yZBwv345zg20Qat-45" value="&lt;b&gt;Cadastro&lt;/b&gt;" style="shape=display;whiteSpace=wrap;html=1;rounded=0;shadow=0;fontSize=17;strokeWidth=2;size=0.25925925925925924;" parent="1" vertex="1">
          <mxGeometry x="927.5" y="317.5" width="135" height="50" as="geometry" />
        </mxCell>
        <mxCell id="GS_q3yZBwv345zg20Qat-51" value="" style="edgeStyle=orthogonalEdgeStyle;rounded=0;orthogonalLoop=1;jettySize=auto;html=1;fontSize=17;" parent="1" source="GS_q3yZBwv345zg20Qat-50" target="GS_q3yZBwv345zg20Qat-45" edge="1">
          <mxGeometry relative="1" as="geometry" />
        </mxCell>
        <mxCell id="Ma5ZTWYUSctiUfGv6G-O-2" value="" style="edgeStyle=orthogonalEdgeStyle;rounded=0;orthogonalLoop=1;jettySize=auto;html=1;" edge="1" parent="1" source="GS_q3yZBwv345zg20Qat-50" target="GS_q3yZBwv345zg20Qat-55">
          <mxGeometry relative="1" as="geometry" />
        </mxCell>
        <mxCell id="GS_q3yZBwv345zg20Qat-50" value="&lt;b&gt;Maior de 18 &lt;br&gt;Anos?&lt;/b&gt;" style="rhombus;whiteSpace=wrap;html=1;rounded=0;shadow=0;fontSize=17;strokeWidth=2;" parent="1" vertex="1">
          <mxGeometry x="680" y="285" width="140" height="115" as="geometry" />
        </mxCell>
        <mxCell id="GS_q3yZBwv345zg20Qat-52" value="&lt;b&gt;Sim&lt;/b&gt;" style="text;html=1;strokeColor=none;fillColor=none;align=center;verticalAlign=middle;whiteSpace=wrap;rounded=0;shadow=0;fontSize=17;" parent="1" vertex="1">
          <mxGeometry x="810" y="290" width="110" height="50" as="geometry" />
        </mxCell>
        <mxCell id="GS_q3yZBwv345zg20Qat-54" value="&lt;b&gt;Não&lt;/b&gt;" style="text;html=1;strokeColor=none;fillColor=none;align=center;verticalAlign=middle;whiteSpace=wrap;rounded=0;shadow=0;fontSize=17;" parent="1" vertex="1">
          <mxGeometry x="685" y="420" width="80" height="30" as="geometry" />
        </mxCell>
        <mxCell id="GS_q3yZBwv345zg20Qat-55" value="&lt;b&gt;Não Cadastrar&lt;/b&gt;" style="shape=display;whiteSpace=wrap;html=1;rounded=0;shadow=0;fontSize=17;strokeWidth=2;" parent="1" vertex="1">
          <mxGeometry x="685" y="480" width="130" height="60" as="geometry" />
        </mxCell>
        <mxCell id="Ma5ZTWYUSctiUfGv6G-O-8" value="" style="edgeStyle=orthogonalEdgeStyle;rounded=0;orthogonalLoop=1;jettySize=auto;html=1;" edge="1" parent="1" source="Ma5ZTWYUSctiUfGv6G-O-3" target="Ma5ZTWYUSctiUfGv6G-O-7">
          <mxGeometry relative="1" as="geometry" />
        </mxCell>
        <mxCell id="Ma5ZTWYUSctiUfGv6G-O-3" value="&lt;span style=&quot;font-size: 17px&quot;&gt;&lt;b&gt;&lt;font style=&quot;vertical-align: inherit&quot;&gt;&lt;font style=&quot;vertical-align: inherit&quot;&gt;Cadastrar Palestrante&lt;/font&gt;&lt;/font&gt;&lt;/b&gt;&lt;/span&gt;" style="shape=display;whiteSpace=wrap;html=1;rounded=0;shadow=0;fontSize=21;strokeWidth=2;" vertex="1" parent="1">
          <mxGeometry x="414" y="130" width="166" height="75" as="geometry" />
        </mxCell>
        <mxCell id="Ma5ZTWYUSctiUfGv6G-O-9" value="" style="edgeStyle=orthogonalEdgeStyle;rounded=0;orthogonalLoop=1;jettySize=auto;html=1;" edge="1" parent="1" source="Ma5ZTWYUSctiUfGv6G-O-7" target="GS_q3yZBwv345zg20Qat-25">
          <mxGeometry relative="1" as="geometry" />
        </mxCell>
        <mxCell id="Ma5ZTWYUSctiUfGv6G-O-7" value="&lt;b&gt;&lt;font style=&quot;font-size: 17px&quot;&gt;&lt;font style=&quot;vertical-align: inherit&quot;&gt;&lt;font style=&quot;vertical-align: inherit&quot;&gt;Cadastro&lt;/font&gt;&lt;/font&gt;&lt;/font&gt;&lt;/b&gt;" style="html=1;strokeWidth=2;shape=manualInput;whiteSpace=wrap;rounded=1;size=26;arcSize=11;" vertex="1" parent="1">
          <mxGeometry x="447.25" y="30" width="99.5" height="62.5" as="geometry" />
        </mxCell>
      </root>
    </mxGraphModel>
  </diagram>
</mxfile>
